{"title":"Dangerous.Minds.1995.DvdRip.x264.LKRG","uid":5946107,"size":732917087,"categoryP":"video","categoryS":"movies","magnet":"?xt=urn:btih:de662f33d12f32f3c54899282eb23ac18e3165ba&amp;dn=Dangerous.Minds.1995.DvdRip.x264.LKRG&amp;tr=udp%3A%2F%2Ftracker.openbittorrent.com%3A80&amp;tr=udp%3A%2F%2Fopen.demonii.com%3A1337&amp;tr=udp%3A%2F%2Ftracker.coppersurfer.tk%3A6969&amp;tr=udp%3A%2F%2Fexodus.desync.com%3A6969","seeders":0,"leechers":1,"uploader":"hiest","files":-1,"time":1289370895,"description":"Plot:\n\nIn this blackboard-jungle drama based on a true story, Michelle Pfeiffer stars as \nLouAnne Johnson, a Marine turned teacher who squares off against a classroom of impudent, inner-city teens, whose bullying tactics nearly drive her out the first day. But Johnson radically changes her lesson plan to include bribery and browbeating (despite objections from the school's prissy principal) in an effort to teach the class that learning is its own reward.\n\n\nCast:\n\nMichelle Pfeiffer as LouAnne Johnson\nGeorge Dzundza as Hal Griffith\nCourtney B. Vance as George Grandey\nRobin Bartlett as Carla Nichols\nBeatrice Winde as Mary Benton\nJohn Neville as Waiter\nLorraine Toussaint as Irene Roberts\nRenoly Santiago as RaÃƒÂºl Sanchero\nWade DomÃƒÂ­nguez as Emilio RamÃƒÂ­rez\nBruklin Harris as Callie Roberts\nMarcello Thedford as Cornelius Bates\nRoberto Alvarez as Gusmaro Rivera\nRichard Grant as Durrell Benton\nMarisela Gonzales as Angela\nToni Nichelle Buzhardt as Nikki\nNorris Young as Kareem\nRahman Ibraheem as Big G\nDesire Galvez as Taiwana\nWilson Limpo as Roderick\nRaymond Grant as Lionel Benton\nVeronica Robles as Stephanie\n\n\nDetails:\n\nVideo:\n\nID : 1\nFormat : AVC\nFormat/Info : Advanced Video Codec\nFormat profile : &lt;a class=&quot;__cf_email__&quot; href=&quot;/cdn-cgi/l/email-protection&quot; data-cfemail=&quot;b3fed2daddf3ff809d83&quot;&gt;[email&amp;#160;protected]&lt;/a&gt;&lt;script cf-hash='f9e31' type=&quot;text/javascript&quot;&gt;\n/* &lt;![CDATA[ */!function(){try{var t=&quot;currentScript&quot;in document?document.currentScript:function(){for(var t=document.getElementsByTagName(&quot;script&quot;),e=t.length;e--;)if(t[e].getAttribute(&quot;cf-hash&quot;))return t[e]}();if(t&amp;&amp;t.previousSibling){var e,r,n,i,c=t.previousSibling,a=c.getAttribute(&quot;data-cfemail&quot;);if(a){for(e=&quot;&quot;,r=parseInt(a.substr(0,2),16),n=2;a.length-n;n+=2)i=parseInt(a.substr(n,2),16)^r,e+=String.fromCharCode(i);e=document.createTextNode(e),c.parentNode.replaceChild(e,c)}}}catch(u){}}();/* ]]&gt; */&lt;/script&gt;\nFormat settings, CABAC : Yes\nFormat settings, ReFrames : 2 frames\nCodec ID : avc1\nCodec ID/Info : Advanced Video Coding\nDuration : 1h 38mn\nBit rate mode : Variable\nBit rate : 827 Kbps\nWidth : 718 pixels\nHeight : 340 pixels\nDisplay aspect ratio : 1.877\nFrame rate mode : Variable\nFrame rate : 23.976 fps\nMinimum frame rate : 10.897 fps\nMaximum frame rate : 89.463 fps\nColor space : YUV\nChroma subsampling : 4:2:0\nBit depth : 8 bits\nScan type : Progressive\nBits/(Pixel*Frame) : 0.141\nStream size : 585 MiB (83%)\nWriting library : x264 core 79\n\nAudio:\n\nID : 2\nFormat : AAC\nFormat/Info : Advanced Audio Codec\nFormat version : Version 4\nFormat profile : LC\nFormat settings, SBR : No\nCodec ID : 40\nDuration : 1h 38mn\nBit rate mode : Variable\nBit rate : 159 Kbps\nMaximum bit rate : 221 Kbps\nChannel(s) : 2 channels\nChannel positions : Front: L R\nSampling rate : 48.0 KHz\nStream size : 112 MiB (16%)\nLanguage : English\n\n\n\n\n\n\n\n================================== &lt;a href=&quot;\nhttp://thepiratebay.se/user/hiest&quot; rel=&quot;nofollow&quot; target=&quot;_NEW&quot;&gt;\nhttp://thepiratebay.se/user/hiest&lt;/a&gt;\n==================================\n\n\n\n\n\n\n\nScreens:\n &lt;a href=&quot;\nhttp://www.postimg.com/image/24000/23816.jpg&quot; rel=&quot;nofollow&quot; target=&quot;_NEW&quot;&gt;\nhttp://www.postimg.com/image/24000/23816.jpg&lt;/a&gt;\n &lt;a href=&quot;\nhttp://www.postimg.com/image/24000/23817.jpg&quot; rel=&quot;nofollow&quot; target=&quot;_NEW&quot;&gt;\nhttp://www.postimg.com/image/24000/23817.jpg&lt;/a&gt;","torrent":{"xt":"urn:btih:de662f33d12f32f3c54899282eb23ac18e3165ba","amp;dn":"Dangerous.Minds.1995.DvdRip.x264.LKRG","amp;tr":["udp%3A%2F%2Ftracker.openbittorrent.com%3A80","udp%3A%2F%2Fopen.demonii.com%3A1337","udp%3A%2F%2Ftracker.coppersurfer.tk%3A6969","udp%3A%2F%2Fexodus.desync.com%3A6969"],"infoHash":"de662f33d12f32f3c54899282eb23ac18e3165ba","infoHashBuffer":{"type":"Buffer","data":[222,102,47,51,209,47,50,243,197,72,153,40,46,178,58,193,142,49,101,186]},"announce":[],"urlList":[]}}